<?xml version="1.0" encoding="UTF-8"?>
<svg id="Iconos" xmlns="http://www.w3.org/2000/svg" viewBox="0 0 512 512">
  <defs>
    <style>
      .cls-1 {
        fill: none;
        stroke: #fff;
        stroke-linecap: round;
        stroke-linejoin: round;
        stroke-width: 25.99px;
      }

      .cls-2 {
        fill: #fff;
      }
    </style>
  </defs>
  <path class="cls-1" d="M197.5,402.5h-84.83s-76.15-4.84-76.78-75.47c-.62-69.62,50.31-83.28,50.31-83.28,0,0-.65-39.69,40.78-52.05,31.27-9.33,50.1,7.81,50.1,7.81,0,0,23.42-85.88,118.42-79.38,94.99,6.51,97.6,108.01,97.6,108.01,0,0,86.54,12.36,83.28,91.74-3.25,79.38-79.13,83.28-106.26,82.63"/>
  <path class="cls-2" d="M268.68,416.88c2.6,2.59,6.12,4.04,9.79,4.04,3.67,0,7.19-1.45,9.79-4.04l110.61-110.61c5.41-5.39,5.42-14.15.02-19.55l-.03-.03c-5.4-5.41-14.17-5.41-19.57,0h0s-100.82,100.85-100.82,100.85l-45.52-45.54c-5.39-5.41-14.15-5.42-19.55-.02l-.02.02c-5.41,5.4-5.41,14.17,0,19.58h0s55.3,55.3,55.3,55.3Z"/>
</svg>