<?xml version="1.0" encoding="UTF-8"?>
<svg version="1.1" xmlns="http://www.w3.org/2000/svg" width="360" height="360">
<path d="M0 0 C2.3125 0.4375 2.3125 0.4375 3.3125 1.4375 C3.55377774 3.59016174 3.73426344 5.7496659 3.890625 7.91015625 C3.99653267 9.28645628 4.10351202 10.66267417 4.21142578 12.03881836 C4.26784241 12.7661618 4.32425903 13.49350525 4.38238525 14.2428894 C7.78021038 56.82278505 20.8598558 105.45101964 52.98046875 135.97265625 C59.67140179 141.55012086 65.68023981 145.22308812 74.6328125 144.91015625 C84.56530519 143.15821512 92.29298816 135.88874062 98.078125 128.04296875 C109.78510154 110.45613688 117.35643701 90.18543371 124.3125 70.375 C133.28206853 44.90986894 143.05288622 18.08691871 168.62890625 5.27734375 C176.33250103 2.8664662 186.70659589 3.08947789 194 6.625 C195.4656807 7.51780042 196.90770014 8.45167554 198.3125 9.4375 C199.385 10.159375 200.4575 10.88125 201.5625 11.625 C208.72390519 18.94916439 211.86022487 27.65019749 214.3125 37.4375 C214.76302734 39.17386719 214.76302734 39.17386719 215.22265625 40.9453125 C222.35152558 72.71022795 215.57620756 106.2764341 198.3371582 133.60400391 C193.98870645 140.22215894 188.86854968 145.82540947 183.3125 151.4375 C182.50039063 152.31019531 181.68828125 153.18289063 180.8515625 154.08203125 C163.19633365 172.68001504 134.43622513 186.48171087 108.65454102 187.54736328 C71.41588778 188.27663173 40.45843442 179.47385541 12.89916992 153.36108398 C-10.1786043 130.85997688 -22.3437847 101.05636761 -23.03881836 69.00732422 C-23.14091382 54.96446174 -18.73174846 3.0493544 0 0 Z " fill="#FDFEFE" transform="translate(82.6875,112.5625)"/>
<path d="M0 0 C1.04671875 -0.01224609 2.0934375 -0.02449219 3.171875 -0.03710938 C14.91118947 -0.05884885 25.47747771 2.10384394 36.5625 5.875 C37.61155518 6.23021729 38.66061035 6.58543457 39.74145508 6.95141602 C52.70793216 11.46188835 63.55175868 18.19519325 74.625 26.1875 C74.47265625 28.078125 74.47265625 28.078125 73.625 30.1875 C71.24609375 31.171875 71.24609375 31.171875 68.0625 31.9375 C54.99132503 35.62497746 43.53100459 41.82004262 33.625 51.1875 C32.62146484 52.11175781 32.62146484 52.11175781 31.59765625 53.0546875 C13.7442814 71.23665207 5.80214467 97.989516 -2.6343689 121.36865234 C-5.58981281 129.54746863 -8.68349516 137.6275005 -12.25 145.5625 C-12.59490479 146.33368164 -12.93980957 147.10486328 -13.29516602 147.89941406 C-19.23255063 160.75920042 -19.23255063 160.75920042 -24.375 164.1875 C-27.625 164.375 -27.625 164.375 -31.375 163.1875 C-52.37634231 144.41210641 -61.39529052 106.564485 -65.375 80.1875 C-65.55160156 79.11250244 -65.72820312 78.03750488 -65.91015625 76.92993164 C-67.24590036 68.41873714 -67.74087422 60.11016947 -67.75 51.5 C-67.77449219 50.27216797 -67.79898438 49.04433594 -67.82421875 47.77929688 C-67.86476453 35.09522539 -64.22797149 24.657992 -55.59765625 15.25 C-41.12819715 1.5202883 -18.90443289 0.01155528 0 0 Z " fill="#FDFEFE" transform="translate(181.375,59.8125)"/>
</svg>
