<?xml version="1.0" encoding="UTF-8"?>
<svg version="1.1" xmlns="http://www.w3.org/2000/svg" width="300" height="289">
<path d="M0 0 C24.75422241 22.07096771 39.70338711 49.91877687 41.8125 83.3125 C43.27726903 114.1379577 32.69666688 144.11393365 12 167 C-8.53611025 189.57380181 -37.35839411 203.52167691 -68 205 C-69.29164063 205.07927734 -69.29164063 205.07927734 -70.609375 205.16015625 C-98.97527936 206.08164749 -126.28131424 195.97299938 -148 178 C-148.84820312 177.31550781 -149.69640625 176.63101563 -150.5703125 175.92578125 C-170.64707 158.90144613 -183.79261701 133.79449419 -188 108 C-188.18304688 106.93910156 -188.36609375 105.87820312 -188.5546875 104.78515625 C-192.11583934 74.51536559 -184.71828735 44.03131223 -166.18359375 19.6796875 C-146.19493699 -4.85022044 -119.03640116 -22.32633409 -87.10839844 -25.83447266 C-55.64640968 -28.30450836 -24.40828196 -20.66615515 0 0 Z M-82.6875 5.125 C-83.47640625 5.56948486 -84.2653125 6.01396973 -85.078125 6.47192383 C-93.63321778 11.31391461 -102.11254784 16.28797462 -110.59375 21.2578125 C-115.06305783 23.87416196 -119.5424263 26.47204231 -124.03125 29.0546875 C-124.90710754 29.55875877 -124.90710754 29.55875877 -125.80065918 30.07301331 C-128.62309861 31.69679891 -131.4466612 33.31859687 -134.27148438 34.93823242 C-135.29564453 35.52709229 -136.31980469 36.11595215 -137.375 36.72265625 C-138.26960938 37.23578369 -139.16421875 37.74891113 -140.0859375 38.27758789 C-141.52839844 39.13018188 -141.52839844 39.13018188 -143 40 C-143.69379761 40.32730606 -144.38759521 40.65461212 -145.10241699 40.99183655 C-149.32910867 43.10532316 -149.32910867 43.10532316 -151.69311523 46.98686218 C-151.92759738 49.44262013 -151.90106317 51.77429425 -151.78125 54.23828125 C-151.76993042 55.11904831 -151.75861084 55.99981537 -151.74694824 56.90727234 C-151.70227979 59.71125994 -151.60195033 62.51006814 -151.5 65.3125 C-151.45985999 67.21672283 -151.4233601 69.12102611 -151.390625 71.02539062 C-151.3025772 75.68557916 -151.16460791 80.34191271 -151 85 C-132.32758572 90.9619257 -113.65360526 96.91890815 -94.97654724 102.86627197 C-87.46888813 105.257047 -79.96203981 107.65028354 -72.45732117 110.05027771 C-69.1665122 111.10154644 -65.8743165 112.148398 -62.58145142 113.19320679 C-61.16135019 113.64481001 -59.74188486 114.09841811 -58.3230896 114.55410767 C-56.42410743 115.16373556 -54.52268132 115.76573577 -52.62109375 116.3671875 C-51.6148999 116.68800293 -50.60870605 117.00881836 -49.57202148 117.33935547 C-46.79687911 118.16585488 -46.79687911 118.16585488 -43 118 C-45.83568011 121.05635722 -48.61546082 123.12731115 -52.24609375 125.1640625 C-53.24833984 125.72867188 -54.25058594 126.29328125 -55.28320312 126.875 C-56.32412109 127.4525 -57.36503906 128.03 -58.4375 128.625 C-59.99307617 129.50285156 -59.99307617 129.50285156 -61.58007812 130.3984375 C-67.23521873 133.56560681 -67.23521873 133.56560681 -70 135 C-70.80824219 135.45286377 -71.61648437 135.90572754 -72.44921875 136.37231445 C-76.23398149 137.30365299 -77.8929373 135.90181938 -81.19140625 133.94140625 C-81.77736069 133.60004135 -82.36331512 133.25867645 -82.96702576 132.90696716 C-84.84270885 131.80896421 -86.70231902 130.68652528 -88.5625 129.5625 C-89.78612156 128.84012101 -91.010724 128.11940081 -92.23632812 127.40039062 C-94.05818205 126.33094828 -95.87523231 125.25613669 -97.68106079 124.15982056 C-100.59759822 122.38998829 -103.489523 120.75378781 -106.54248047 119.21826172 C-114.5628491 115.10534352 -114.5628491 115.10534352 -115.96313477 111.56469727 C-116.22418209 109.28769813 -116.26788993 107.27191272 -116 105 C-120.50064789 103.57037796 -125.00301836 102.14636918 -129.50708008 100.72753906 C-131.03914283 100.24405426 -132.57072303 99.75903758 -134.10180664 99.27246094 C-136.3022971 98.57343966 -138.50446261 97.87994097 -140.70703125 97.1875 C-141.73374687 96.85939331 -141.73374687 96.85939331 -142.78120422 96.5246582 C-145.64255689 95.63016913 -147.98146816 95 -151 95 C-151.32303689 100.40714061 -151.5579136 105.80861038 -151.71411133 111.22314453 C-151.77923155 113.06105367 -151.86777109 114.89829559 -151.98071289 116.73388672 C-152.56540612 125.46625492 -152.56540612 125.46625492 -151 134 C-147.28961544 138.12980984 -143.05738387 139.87569097 -138 142 C-135.82356764 143.22277313 -133.66292671 144.47410633 -131.51953125 145.75390625 C-129.28502616 147.02549919 -127.04931132 148.29496825 -124.8125 149.5625 C-122.36394904 150.9546155 -119.91634604 152.34839392 -117.46875 153.7421875 C-116.54386528 154.26848 -116.54386528 154.26848 -115.60029602 154.80540466 C-107.91733238 159.18021925 -100.26554147 163.60895816 -92.61450195 168.03930664 C-90.64947324 169.17567257 -88.68130842 170.30663951 -86.70947266 171.43115234 C-84.93583921 172.45812734 -83.17907255 173.51494113 -81.44287109 174.60400391 C-80.66121582 175.08144043 -79.87956055 175.55887695 -79.07421875 176.05078125 C-78.40350342 176.47657471 -77.73278809 176.90236816 -77.04174805 177.34106445 C-74.08707472 178.29462936 -72.72631729 177.37613369 -70 176 C-68.28065956 175.10624743 -66.57690958 174.18209867 -64.88671875 173.234375 C-63.40449829 172.40486328 -63.40449829 172.40486328 -61.89233398 171.55859375 C-60.83473877 170.96175781 -59.77714355 170.36492187 -58.6875 169.75 C-57.02666382 168.81607422 -57.02666382 168.81607422 -55.33227539 167.86328125 C-49.82409803 164.75616439 -44.33117259 161.62399797 -38.859375 158.453125 C-37.87686768 157.8844873 -36.89436035 157.31584961 -35.88208008 156.72998047 C-33.91150398 155.57224046 -31.95289393 154.3938993 -30.0065918 153.19580078 C-24.82948472 150.03937326 -19.86760101 147.48554012 -14.16015625 145.4140625 C-4.22881633 141.52487699 -4.22881633 141.52487699 3 134 C6.60362625 121.43062095 4.41219333 106.79121262 3 94 C-17.63261299 87.03554032 -38.31892073 80.25191085 -59.0625 73.625 C-60.11346863 73.28919922 -61.16443726 72.95339844 -62.24725342 72.60742188 C-67.27573675 71.00160683 -72.30524569 69.39910384 -77.33642578 67.80175781 C-81.0982546 66.6072423 -84.85667044 65.40276382 -88.61279297 64.19042969 C-90.3447217 63.63475048 -92.07665505 63.07908565 -93.80859375 62.5234375 C-94.99220238 62.13812363 -94.99220238 62.13812363 -96.19972229 61.74502563 C-99.24251734 60.77277962 -101.78445751 60 -105 60 C-105 59.34 -105 58.68 -105 58 C-103.92782227 57.59793335 -103.92782227 57.59793335 -102.83398438 57.18774414 C-99.95185119 55.97982047 -97.3551611 54.5690979 -94.65625 52.99609375 C-93.65722656 52.42052734 -92.65820312 51.84496094 -91.62890625 51.25195312 C-89.54127153 50.04133349 -87.45533271 48.8277847 -85.37109375 47.61132812 C-84.37207031 47.03705078 -83.37304688 46.46277344 -82.34375 45.87109375 C-81.43818359 45.34443115 -80.53261719 44.81776855 -79.59960938 44.27514648 C-76.91870945 42.9601258 -74.98224977 42.18275951 -72 42 C-69.45141602 43.04467773 -69.45141602 43.04467773 -66.75390625 44.68359375 C-65.75762207 45.27833496 -64.76133789 45.87307617 -63.73486328 46.48583984 C-62.6879834 47.1298877 -61.64110352 47.77393555 -60.5625 48.4375 C-58.40512117 49.73075781 -56.24756976 51.02372777 -54.08984375 52.31640625 C-53.04683105 52.94820801 -52.00381836 53.58000977 -50.92919922 54.23095703 C-47.18670853 56.49117436 -43.41638073 58.69807374 -39.625 60.875 C-38.56539063 61.49117187 -37.50578125 62.10734375 -36.4140625 62.7421875 C-34.15806863 64.15402517 -34.15806863 64.15402517 -32 64 C-32 66.97 -32 69.94 -32 73 C-24.95314718 75.93321756 -17.8402357 78.45384236 -10.5625 80.75 C-9.58345703 81.06582031 -8.60441406 81.38164062 -7.59570312 81.70703125 C-6.65791016 82.00480469 -5.72011719 82.30257812 -4.75390625 82.609375 C-3.91158447 82.87717773 -3.0692627 83.14498047 -2.20141602 83.42089844 C0.10416393 84.12720178 0.10416393 84.12720178 3 84 C3.78040509 74.10262722 4.27496124 64.21901401 4.02734375 54.2890625 C4.03170189 53.04287643 4.03170189 53.04287643 4.03614807 51.77151489 C3.85247536 47.1345829 3.1348401 44.59573019 -0.20751953 41.27587891 C-2.87340193 39.08087876 -5.19456097 37.6317711 -8.58203125 36.796875 C-15.17242088 34.80001025 -20.69248125 31.28406216 -26.5625 27.75 C-28.7877316 26.46158763 -31.01562532 25.17776259 -33.24609375 23.8984375 C-39.88084442 20.07176753 -46.50633232 16.22941572 -53.125 12.375 C-54.10154541 11.80749023 -55.07809082 11.23998047 -56.08422852 10.65527344 C-60.91671535 7.83748211 -65.68452407 4.9740803 -70.33935547 1.86962891 C-74.88810188 -0.51241089 -78.75746581 2.88103591 -82.6875 5.125 Z " fill="#E1262F" transform="translate(206,83)"/>
<path d="M0 0 C7.14950028 4.08715109 13.26204395 10.17447185 15.91796875 18.125 C17.65706459 27.72412706 16.97946228 36.27214108 12.08203125 44.796875 C9.55549589 48.41339797 7.05438007 50.98701773 3.31640625 53.32421875 C2.68347656 53.73414063 2.05054688 54.1440625 1.3984375 54.56640625 C-6.12058947 58.65743406 -14.80501556 58.22713762 -23.07421875 56.95703125 C-29.98254091 54.90700069 -36.24534818 48.97198771 -40.171875 43.09765625 C-44.13243424 35.40697031 -45.04234011 27.03750163 -43.03515625 18.59765625 C-40.03383515 10.31195783 -35.31187889 4.40625199 -27.43359375 0.38671875 C-18.34032618 -3.77867556 -9.22197587 -4.2187209 0 0 Z " fill="#E1262F" transform="translate(283.68359375,231.67578125)"/>
<path d="M0 0 C5.58863658 2.59472413 9.4030982 7.03432523 12.3125 12.4375 C13.7768864 17.8956675 13.28748633 22.82461304 11.1875 28.00390625 C8.43748649 32.62646185 4.07952333 36.30682556 -1 38 C-7.21358393 38.50723134 -12.78894073 38.78986129 -18 35 C-22.90599099 30.10420858 -26.09963619 26.44903924 -26.3125 19.3125 C-26.20171611 12.97012245 -24.67755807 8.70064047 -20.1875 4.171875 C-13.96548149 -0.72338957 -7.68858812 -1.17817202 0 0 Z " fill="#E2262F" transform="translate(139,0)"/>
<path d="M0 0 C3.76266417 1.77871397 5.51796464 3.33137031 7.9375 6.6875 C9.35197764 11.09734204 9.30298612 14.55872415 8 19 C6.20240678 22.25640926 3.89777071 24.42642427 0.75 26.4375 C-3.93908868 27.39663178 -8.67196836 27.38423503 -12.87890625 24.8828125 C-15.03541048 23.12643074 -16.74817471 21.50365058 -18 19 C-18.40678241 14.14207935 -18.62085653 9.56847965 -16.8125 5 C-11.96080392 -0.35359568 -6.95909215 -0.99256282 0 0 Z " fill="#E2262F" transform="translate(18,246)"/>
</svg>
